<svg width="215" height="64" viewBox="0 0 215 64" fill="none" xmlns="http://www.w3.org/2000/svg">
<path d="M9.82422 19.793C10.5742 19.8164 11.2305 19.8281 11.793 19.8281C12.3555 19.8047 12.8125 19.793 13.1641 19.793H14.1836C14.4414 19.7695 14.7578 19.7578 15.1328 19.7578C15.4609 19.7578 15.8594 19.7578 16.3281 19.7578C16.7969 19.7578 17.3359 19.7695 17.9453 19.793C18.1328 20.4492 18.3438 21.0938 18.5781 21.7266C18.8359 22.3359 19.0586 22.8867 19.2461 23.3789C19.4805 23.9648 19.7148 24.5156 19.9492 25.0312C20.1836 25.5469 20.4648 26.168 20.793 26.8945C21.0742 27.5039 21.4141 28.2539 21.8125 29.1445C22.2109 30.0117 22.6797 31.0078 23.2188 32.1328C23.4766 31.4062 23.7109 30.7383 23.9219 30.1289C24.1562 29.5195 24.3555 28.9922 24.5195 28.5469C24.707 28.0312 24.8594 27.5625 24.9766 27.1406C25.0938 26.7188 25.2227 26.2031 25.3633 25.5938C25.4805 25.0781 25.6094 24.457 25.75 23.7305C25.9141 23.0039 26.0781 22.1602 26.2422 21.1992C26.9219 21.1992 27.5312 21.1992 28.0703 21.1992C28.6094 21.1992 29.0781 21.1875 29.4766 21.1641C29.9219 21.1641 30.3203 21.1523 30.6719 21.1289C31.0469 21.1289 31.5508 21.1055 32.1836 21.0586C32.7227 21.0117 33.4375 20.9766 34.3281 20.9531C35.2422 20.9062 36.3672 20.8477 37.7031 20.7773C37.2109 21.1289 36.8125 21.4805 36.5078 21.832C36.2266 22.1602 36.0039 22.4531 35.8398 22.7109C35.6523 23.0156 35.5352 23.3086 35.4883 23.5898C35.4414 23.8242 35.3945 24.3633 35.3477 25.207C35.3242 26.0508 35.2891 27.0586 35.2422 28.2305C35.2188 29.3789 35.1953 30.6094 35.1719 31.9219C35.1719 33.2344 35.1836 34.4766 35.207 35.6484C35.2305 36.8203 35.2656 37.8398 35.3125 38.707C35.3828 39.5508 35.4766 40.0898 35.5938 40.3242C35.7578 40.6055 35.9805 40.9336 36.2617 41.3086C36.5195 41.6367 36.8477 42.0117 37.2461 42.4336C37.668 42.8555 38.2188 43.3242 38.8984 43.8398C37.8203 43.8867 36.918 43.9219 36.1914 43.9453C35.4883 43.9688 34.9023 43.9922 34.4336 44.0156C33.8945 44.0391 33.4609 44.0508 33.1328 44.0508C32.7812 44.0508 32.3008 44.0625 31.6914 44.0859C31.1523 44.1094 30.4375 44.1445 29.5469 44.1914C28.6562 44.2148 27.5078 44.2617 26.1016 44.332C26.4297 43.957 26.7344 43.582 27.0156 43.207C27.2969 42.832 27.5312 42.4922 27.7188 42.1875C27.9531 41.8359 28.1523 41.4961 28.3164 41.168C28.4805 40.7227 28.6094 39.9141 28.7031 38.7422C28.7969 37.7344 28.8672 36.293 28.9141 34.418C28.9609 32.5195 28.9609 29.9766 28.9141 26.7891C28.4688 27.5156 28.0703 28.2422 27.7188 28.9688C27.3906 29.6719 27.0977 30.3164 26.8398 30.9023C26.5586 31.582 26.3008 32.2383 26.0664 32.8711C25.832 33.5273 25.5859 34.2539 25.3281 35.0508C25.0938 35.7305 24.8125 36.5391 24.4844 37.4766C24.1797 38.4141 23.8281 39.4453 23.4297 40.5703L22.0938 40.6406C21.9062 39.7031 21.7188 38.8594 21.5312 38.1094C21.3438 37.3359 21.1562 36.6797 20.9688 36.1406C20.7578 35.5078 20.5469 34.9453 20.3359 34.4531C20.1016 33.9609 19.8438 33.4102 19.5625 32.8008C19.3047 32.2852 18.9883 31.6758 18.6133 30.9727C18.2617 30.2695 17.8516 29.4844 17.3828 28.6172C17.1484 31.0078 17.0078 32.9531 16.9609 34.4531C16.9141 35.9297 16.9141 37.0781 16.9609 37.8984C17.0078 38.8828 17.0781 39.5977 17.1719 40.043C17.3125 40.4414 17.5352 40.8867 17.8398 41.3789C18.0977 41.8008 18.4492 42.3047 18.8945 42.8906C19.3633 43.4531 19.9609 44.0859 20.6875 44.7891C20.1719 44.7891 19.6328 44.7891 19.0703 44.7891C18.5078 44.7891 17.9922 44.8008 17.5234 44.8242C16.9609 44.8477 16.4102 44.8594 15.8711 44.8594C15.3086 44.8828 14.6523 44.918 13.9023 44.9648C13.2461 45.0117 12.4609 45.0586 11.5469 45.1055C10.6328 45.1523 9.57812 45.2344 8.38281 45.3516C8.89844 45.0234 9.32031 44.707 9.64844 44.4023C9.97656 44.0742 10.2344 43.7812 10.4219 43.5234C10.6562 43.2188 10.832 42.9141 10.9492 42.6094C11.0195 42.4219 11.0781 42.0117 11.125 41.3789C11.1953 40.7461 11.2539 39.9727 11.3008 39.0586C11.3711 38.1445 11.418 37.125 11.4414 36C11.4883 34.875 11.5234 33.7383 11.5469 32.5898C11.5938 31.418 11.6289 30.2812 11.6523 29.1797C11.6758 28.0547 11.6875 27.0469 11.6875 26.1562C11.7109 25.2422 11.7227 24.4805 11.7227 23.8711C11.7227 23.2617 11.7227 22.875 11.7227 22.7109C11.6523 22.3594 11.5469 22.0078 11.4062 21.6562C11.2891 21.3516 11.1016 21.0352 10.8438 20.707C10.5859 20.3789 10.2461 20.0742 9.82422 19.793ZM50.8516 18.4922C52.1172 18.5391 53.3945 18.7734 54.6836 19.1953C55.9961 19.5938 57.2031 20.25 58.3047 21.1641C59.4062 22.0547 60.3438 23.2148 61.1172 24.6445C61.8906 26.0508 62.3711 27.7734 62.5586 29.8125C62.7227 31.4766 62.5117 33.1289 61.9258 34.7695C61.3633 36.3867 60.5781 37.875 59.5703 39.2344C58.5625 40.5938 57.4023 41.7539 56.0898 42.7148C54.7773 43.6523 53.4648 44.2734 52.1523 44.5781C51.3555 44.7656 50.4766 44.7891 49.5156 44.6484C48.5781 44.4844 47.6172 44.1914 46.6328 43.7695C45.6719 43.3242 44.7227 42.7617 43.7852 42.082C42.8711 41.4023 42.0391 40.6289 41.2891 39.7617C40.5391 38.8711 39.9062 37.9102 39.3906 36.8789C38.8984 35.8477 38.5938 34.7695 38.4766 33.6445C38.3594 32.707 38.3477 31.6758 38.4414 30.5508C38.5586 29.4023 38.7812 28.2656 39.1094 27.1406C39.4609 25.9922 39.9414 24.8906 40.5508 23.8359C41.1836 22.7578 41.9805 21.8203 42.9414 21.0234C43.9023 20.2031 45.0273 19.5703 46.3164 19.125C47.6289 18.6562 49.1406 18.4453 50.8516 18.4922ZM44.5586 32.7305C44.2305 35.2383 44.4648 37.2539 45.2617 38.7773C46.082 40.3008 47.3125 41.2266 48.9531 41.5547C49.75 41.7188 50.5117 41.5547 51.2383 41.0625C51.9883 40.5469 52.668 39.8086 53.2773 38.8477C53.8867 37.8867 54.4141 36.7617 54.8594 35.4727C55.3047 34.1836 55.6328 32.8359 55.8438 31.4297C56.0547 30.0234 56.0664 28.7578 55.8789 27.6328C55.7148 26.4844 55.4219 25.5117 55 24.7148C54.5781 23.8945 54.0625 23.2617 53.4531 22.8164C52.8672 22.3711 52.2578 22.125 51.625 22.0781C50.5234 22.0078 49.5625 22.3008 48.7422 22.957C47.9219 23.5898 47.2305 24.4219 46.668 25.4531C46.1055 26.4844 45.6484 27.6445 45.2969 28.9336C44.9688 30.2227 44.7227 31.4883 44.5586 32.7305ZM62.8047 20.0742C63.8594 20.2617 64.7266 20.3906 65.4062 20.4609C66.0859 20.5312 66.6367 20.5898 67.0586 20.6367C67.5508 20.6836 67.9375 20.6953 68.2188 20.6719H69.2734C69.6484 20.6719 70.1172 20.6719 70.6797 20.6719C71.2656 20.6484 71.9922 20.6367 72.8594 20.6367C73.3516 21.7852 73.7969 22.8398 74.1953 23.8008C74.6172 24.7617 74.9688 25.582 75.25 26.2617C75.5781 27.082 75.8828 27.8203 76.1641 28.4766C76.4922 29.2969 76.8438 30.1992 77.2188 31.1836C77.5938 32.168 77.9336 33.0938 78.2383 33.9609C78.5664 34.8281 78.8359 35.543 79.0469 36.1055C79.2578 36.668 79.3633 36.9258 79.3633 36.8789C79.3633 36.8555 79.375 36.6211 79.3984 36.1758C79.4219 35.707 79.4453 35.1328 79.4688 34.4531C79.4922 33.75 79.5156 32.9883 79.5391 32.168C79.5859 31.3242 79.6094 30.5156 79.6094 29.7422C79.6328 28.9453 79.6445 28.2188 79.6445 27.5625C79.6445 26.9062 79.6211 26.4141 79.5742 26.0859C79.5039 25.6875 79.3633 25.2305 79.1523 24.7148C78.9648 24.2695 78.707 23.7422 78.3789 23.1328C78.0508 22.5 77.5938 21.7852 77.0078 20.9883C77.9688 21.0117 78.7539 21.0234 79.3633 21.0234C79.9727 21.0234 80.4648 21.0234 80.8398 21.0234C81.2617 21.0234 81.5898 21.0117 81.8242 20.9883C82.1289 20.9883 82.5039 20.9648 82.9492 20.918C83.3477 20.8711 83.8398 20.8359 84.4258 20.8125C85.0352 20.7656 85.7852 20.707 86.6758 20.6367C86.1602 21.1055 85.75 21.5508 85.4453 21.9727C85.1406 22.3945 84.8945 22.7695 84.707 23.0977C84.4961 23.4727 84.3555 23.8242 84.2852 24.1523C84.1914 24.5742 84.1094 25.2656 84.0391 26.2266C83.9922 27.1641 83.9336 28.2188 83.8633 29.3906C83.8164 30.5625 83.7695 31.7812 83.7227 33.0469C83.6758 34.3125 83.6289 35.4727 83.582 36.5273C83.582 37.3242 83.5586 38.1797 83.5117 39.0938C83.4648 39.8672 83.418 40.7461 83.3711 41.7305C83.3242 42.6914 83.2656 43.6641 83.1953 44.6484L80.0664 44.7188C79.1523 43.1016 78.3789 41.7188 77.7461 40.5703C77.1367 39.3984 76.6328 38.4375 76.2344 37.6875C75.7891 36.8203 75.4141 36.0938 75.1094 35.5078C74.8516 34.9453 74.5117 34.3008 74.0898 33.5742C73.7383 32.9648 73.293 32.2148 72.7539 31.3242C72.2383 30.4336 71.6172 29.4141 70.8906 28.2656C70.8203 29.8828 70.7852 31.2656 70.7852 32.4141C70.8086 33.5391 70.8438 34.4766 70.8906 35.2266C70.9609 36.0938 71.043 36.8203 71.1367 37.4062C71.2539 37.9688 71.418 38.6016 71.6289 39.3047C71.8164 39.9141 72.0391 40.6289 72.2969 41.4492C72.5781 42.2695 72.918 43.1953 73.3164 44.2266C71.9336 44.1562 70.9023 44.1211 70.2227 44.1211H69.168C68.8398 44.1211 68.3945 44.1562 67.832 44.2266C67.3633 44.2734 66.7188 44.3438 65.8984 44.4375C65.1016 44.5312 64.1055 44.6602 62.9102 44.8242C63.4727 44.1445 63.918 43.5234 64.2461 42.9609C64.5977 42.375 64.8672 41.8828 65.0547 41.4844C65.2891 41.0156 65.4531 40.6055 65.5469 40.2539C65.6172 39.8789 65.6641 39.2344 65.6875 38.3203C65.7109 37.3828 65.7109 36.3281 65.6875 35.1562C65.6875 33.9609 65.6641 32.707 65.6172 31.3945C65.5938 30.082 65.5586 28.8633 65.5117 27.7383C65.4648 26.6133 65.4062 25.6523 65.3359 24.8555C65.2891 24.0586 65.2539 23.5664 65.2305 23.3789C65.1602 23.0742 65.0195 22.7461 64.8086 22.3945C64.6211 22.0898 64.375 21.75 64.0703 21.375C63.7656 20.9766 63.3438 20.543 62.8047 20.0742ZM99.332 18.4922C100.598 18.5391 101.875 18.7734 103.164 19.1953C104.477 19.5938 105.684 20.25 106.785 21.1641C107.887 22.0547 108.824 23.2148 109.598 24.6445C110.371 26.0508 110.852 27.7734 111.039 29.8125C111.203 31.4766 110.992 33.1289 110.406 34.7695C109.844 36.3867 109.059 37.875 108.051 39.2344C107.043 40.5938 105.883 41.7539 104.57 42.7148C103.258 43.6523 101.945 44.2734 100.633 44.5781C99.8359 44.7656 98.957 44.7891 97.9961 44.6484C97.0586 44.4844 96.0977 44.1914 95.1133 43.7695C94.1523 43.3242 93.2031 42.7617 92.2656 42.082C91.3516 41.4023 90.5195 40.6289 89.7695 39.7617C89.0195 38.8711 88.3867 37.9102 87.8711 36.8789C87.3789 35.8477 87.0742 34.7695 86.957 33.6445C86.8398 32.707 86.8281 31.6758 86.9219 30.5508C87.0391 29.4023 87.2617 28.2656 87.5898 27.1406C87.9414 25.9922 88.4219 24.8906 89.0312 23.8359C89.6641 22.7578 90.4609 21.8203 91.4219 21.0234C92.3828 20.2031 93.5078 19.5703 94.7969 19.125C96.1094 18.6562 97.6211 18.4453 99.332 18.4922ZM93.0391 32.7305C92.7109 35.2383 92.9453 37.2539 93.7422 38.7773C94.5625 40.3008 95.793 41.2266 97.4336 41.5547C98.2305 41.7188 98.9922 41.5547 99.7188 41.0625C100.469 40.5469 101.148 39.8086 101.758 38.8477C102.367 37.8867 102.895 36.7617 103.34 35.4727C103.785 34.1836 104.113 32.8359 104.324 31.4297C104.535 30.0234 104.547 28.7578 104.359 27.6328C104.195 26.4844 103.902 25.5117 103.48 24.7148C103.059 23.8945 102.543 23.2617 101.934 22.8164C101.348 22.3711 100.738 22.125 100.105 22.0781C99.0039 22.0078 98.043 22.3008 97.2227 22.957C96.4023 23.5898 95.7109 24.4219 95.1484 25.4531C94.5859 26.4844 94.1289 27.6445 93.7773 28.9336C93.4492 30.2227 93.2031 31.4883 93.0391 32.7305ZM111.637 19.793C112.387 19.8164 113.043 19.8281 113.605 19.8281C114.168 19.8047 114.625 19.793 114.977 19.793H115.996C116.254 19.7695 116.57 19.7578 116.945 19.7578C117.273 19.7578 117.672 19.7578 118.141 19.7578C118.609 19.7578 119.148 19.7695 119.758 19.793C119.945 20.4492 120.156 21.0938 120.391 21.7266C120.648 22.3359 120.871 22.8867 121.059 23.3789C121.293 23.9648 121.527 24.5156 121.762 25.0312C121.996 25.5469 122.277 26.168 122.605 26.8945C122.887 27.5039 123.227 28.2539 123.625 29.1445C124.023 30.0117 124.492 31.0078 125.031 32.1328C125.289 31.4062 125.523 30.7383 125.734 30.1289C125.969 29.5195 126.168 28.9922 126.332 28.5469C126.52 28.0312 126.672 27.5625 126.789 27.1406C126.906 26.7188 127.035 26.2031 127.176 25.5938C127.293 25.0781 127.422 24.457 127.562 23.7305C127.727 23.0039 127.891 22.1602 128.055 21.1992C128.734 21.1992 129.344 21.1992 129.883 21.1992C130.422 21.1992 130.891 21.1875 131.289 21.1641C131.734 21.1641 132.133 21.1523 132.484 21.1289C132.859 21.1289 133.363 21.1055 133.996 21.0586C134.535 21.0117 135.25 20.9766 136.141 20.9531C137.055 20.9062 138.18 20.8477 139.516 20.7773C139.023 21.1289 138.625 21.4805 138.32 21.832C138.039 22.1602 137.816 22.4531 137.652 22.7109C137.465 23.0156 137.348 23.3086 137.301 23.5898C137.254 23.8242 137.207 24.3633 137.16 25.207C137.137 26.0508 137.102 27.0586 137.055 28.2305C137.031 29.3789 137.008 30.6094 136.984 31.9219C136.984 33.2344 136.996 34.4766 137.02 35.6484C137.043 36.8203 137.078 37.8398 137.125 38.707C137.195 39.5508 137.289 40.0898 137.406 40.3242C137.57 40.6055 137.793 40.9336 138.074 41.3086C138.332 41.6367 138.66 42.0117 139.059 42.4336C139.48 42.8555 140.031 43.3242 140.711 43.8398C139.633 43.8867 138.73 43.9219 138.004 43.9453C137.301 43.9688 136.715 43.9922 136.246 44.0156C135.707 44.0391 135.273 44.0508 134.945 44.0508C134.594 44.0508 134.113 44.0625 133.504 44.0859C132.965 44.1094 132.25 44.1445 131.359 44.1914C130.469 44.2148 129.32 44.2617 127.914 44.332C128.242 43.957 128.547 43.582 128.828 43.207C129.109 42.832 129.344 42.4922 129.531 42.1875C129.766 41.8359 129.965 41.4961 130.129 41.168C130.293 40.7227 130.422 39.9141 130.516 38.7422C130.609 37.7344 130.68 36.293 130.727 34.418C130.773 32.5195 130.773 29.9766 130.727 26.7891C130.281 27.5156 129.883 28.2422 129.531 28.9688C129.203 29.6719 128.91 30.3164 128.652 30.9023C128.371 31.582 128.113 32.2383 127.879 32.8711C127.645 33.5273 127.398 34.2539 127.141 35.0508C126.906 35.7305 126.625 36.5391 126.297 37.4766C125.992 38.4141 125.641 39.4453 125.242 40.5703L123.906 40.6406C123.719 39.7031 123.531 38.8594 123.344 38.1094C123.156 37.3359 122.969 36.6797 122.781 36.1406C122.57 35.5078 122.359 34.9453 122.148 34.4531C121.914 33.9609 121.656 33.4102 121.375 32.8008C121.117 32.2852 120.801 31.6758 120.426 30.9727C120.074 30.2695 119.664 29.4844 119.195 28.6172C118.961 31.0078 118.82 32.9531 118.773 34.4531C118.727 35.9297 118.727 37.0781 118.773 37.8984C118.82 38.8828 118.891 39.5977 118.984 40.043C119.125 40.4414 119.348 40.8867 119.652 41.3789C119.91 41.8008 120.262 42.3047 120.707 42.8906C121.176 43.4531 121.773 44.0859 122.5 44.7891C121.984 44.7891 121.445 44.7891 120.883 44.7891C120.32 44.7891 119.805 44.8008 119.336 44.8242C118.773 44.8477 118.223 44.8594 117.684 44.8594C117.121 44.8828 116.465 44.918 115.715 44.9648C115.059 45.0117 114.273 45.0586 113.359 45.1055C112.445 45.1523 111.391 45.2344 110.195 45.3516C110.711 45.0234 111.133 44.707 111.461 44.4023C111.789 44.0742 112.047 43.7812 112.234 43.5234C112.469 43.2188 112.645 42.9141 112.762 42.6094C112.832 42.4219 112.891 42.0117 112.938 41.3789C113.008 40.7461 113.066 39.9727 113.113 39.0586C113.184 38.1445 113.23 37.125 113.254 36C113.301 34.875 113.336 33.7383 113.359 32.5898C113.406 31.418 113.441 30.2812 113.465 29.1797C113.488 28.0547 113.5 27.0469 113.5 26.1562C113.523 25.2422 113.535 24.4805 113.535 23.8711C113.535 23.2617 113.535 22.875 113.535 22.7109C113.465 22.3594 113.359 22.0078 113.219 21.6562C113.102 21.3516 112.914 21.0352 112.656 20.707C112.398 20.3789 112.059 20.0742 111.637 19.793ZM145.879 21.1992C147.051 21.2695 148.035 21.3281 148.832 21.375C149.652 21.3984 150.332 21.4219 150.871 21.4453C151.48 21.4688 151.996 21.4688 152.418 21.4453C152.84 21.4219 153.414 21.3633 154.141 21.2695C154.75 21.1992 155.559 21.0938 156.566 20.9531C157.598 20.7891 158.875 20.5781 160.398 20.3203C159.859 20.8594 159.438 21.3516 159.133 21.7969C158.852 22.2188 158.629 22.582 158.465 22.8867C158.277 23.2617 158.148 23.5781 158.078 23.8359C158.031 24.0703 158.078 24.6562 158.219 25.5938C158.359 26.5312 158.559 27.6445 158.816 28.9336C159.074 30.1992 159.355 31.5586 159.66 33.0117C159.965 34.4414 160.27 35.7891 160.574 37.0547C160.879 38.2969 161.148 39.3633 161.383 40.2539C161.641 41.1211 161.828 41.6367 161.945 41.8008C162.297 42.293 162.52 42.6211 162.613 42.7852C162.707 42.9258 162.871 43.0547 163.105 43.1719C163.199 43.2188 163.352 43.2891 163.562 43.3828C163.75 43.4766 163.996 43.5938 164.301 43.7344C164.629 43.875 165.039 44.0391 165.531 44.2266C164.617 44.2734 163.832 44.3086 163.176 44.332C162.52 44.332 161.98 44.3438 161.559 44.3672C161.066 44.3906 160.645 44.4141 160.293 44.4375C159.941 44.4375 159.52 44.4609 159.027 44.5078C158.605 44.5547 158.055 44.6016 157.375 44.6484C156.719 44.6953 155.945 44.7422 155.055 44.7891C155.523 44.4609 155.898 44.168 156.18 43.9102C156.484 43.6289 156.719 43.3945 156.883 43.207C157.07 42.9727 157.199 42.7617 157.27 42.5742C157.316 42.3633 157.352 42.0469 157.375 41.625C157.398 41.25 157.398 40.7578 157.375 40.1484C157.352 39.5156 157.293 38.6953 157.199 37.6875L147.953 38.6367C147.719 39.0352 147.543 39.3867 147.426 39.6914C147.309 39.9727 147.227 40.2188 147.18 40.4297C147.109 40.6875 147.086 40.8984 147.109 41.0625C147.156 41.25 147.238 41.4727 147.355 41.7305C147.473 41.9648 147.637 42.2461 147.848 42.5742C148.082 42.8789 148.422 43.2422 148.867 43.6641C148.281 43.6406 147.684 43.6289 147.074 43.6289C146.465 43.6289 145.902 43.6406 145.387 43.6641C144.777 43.6875 144.18 43.7109 143.594 43.7344C143.008 43.7578 142.34 43.793 141.59 43.8398C140.957 43.8867 140.219 43.9453 139.375 44.0156C138.508 44.0625 137.582 44.1328 136.598 44.2266C137.207 43.9453 137.723 43.6641 138.145 43.3828C138.566 43.0781 138.918 42.7969 139.199 42.5391C139.527 42.2578 139.809 41.9883 140.043 41.7305C140.207 41.4961 140.535 40.957 141.027 40.1133C141.52 39.2461 142.07 38.2266 142.68 37.0547C143.312 35.8828 143.969 34.6289 144.648 33.293C145.352 31.957 145.984 30.7031 146.547 29.5312C147.109 28.3359 147.566 27.3047 147.918 26.4375C148.27 25.5703 148.445 25.0078 148.445 24.75C148.398 24.4453 148.281 24.1055 148.094 23.7305C147.93 23.4023 147.672 23.0273 147.32 22.6055C146.992 22.1836 146.512 21.7148 145.879 21.1992ZM156.777 35.0859C156.637 34.2656 156.508 33.5625 156.391 32.9766C156.273 32.3672 156.18 31.8633 156.109 31.4648C156.016 30.9961 155.945 30.5859 155.898 30.2344C155.828 29.9062 155.746 29.4844 155.652 28.9688C155.559 28.5234 155.441 27.9727 155.301 27.3164C155.184 26.6367 155.031 25.8281 154.844 24.8906C153.508 27.5625 152.465 29.6367 151.715 31.1133C150.988 32.5664 150.461 33.6328 150.133 34.3125C149.734 35.1094 149.512 35.5781 149.465 35.7188L156.777 35.0859ZM162.438 19.3359C163.188 19.4531 163.867 19.5586 164.477 19.6523C165.086 19.7227 165.613 19.7812 166.059 19.8281C166.574 19.8984 167.031 19.957 167.43 20.0039C167.922 20.0742 168.66 19.9922 169.645 19.7578C170.629 19.5 171.707 19.2656 172.879 19.0547C174.074 18.8203 175.293 18.6914 176.535 18.668C177.777 18.6211 178.914 18.8438 179.945 19.3359C180.977 19.8281 181.82 20.3203 182.477 20.8125C183.133 21.3047 183.648 21.832 184.023 22.3945C184.422 22.9336 184.703 23.5078 184.867 24.1172C185.031 24.7266 185.125 25.3945 185.148 26.1211C185.125 27.1992 184.867 28.2422 184.375 29.25C184.164 29.6719 183.883 30.1172 183.531 30.5859C183.203 31.0312 182.793 31.4648 182.301 31.8867C181.809 32.3086 181.223 32.707 180.543 33.082C179.887 33.457 179.113 33.7852 178.223 34.0664C179.09 34.3242 179.805 34.6289 180.367 34.9805C180.953 35.332 181.422 35.6602 181.773 35.9648C182.195 36.3398 182.512 36.7031 182.723 37.0547C182.98 37.5469 183.156 37.9688 183.25 38.3203C183.344 38.6719 183.402 39.0117 183.426 39.3398C183.473 39.6445 183.531 39.9609 183.602 40.2891C183.672 40.6172 183.824 40.9922 184.059 41.4141C184.246 41.7422 184.469 42.082 184.727 42.4336C184.961 42.7383 185.23 43.0664 185.535 43.418C185.863 43.7695 186.262 44.1094 186.73 44.4375C186.074 44.4609 185.465 44.4727 184.902 44.4727C184.363 44.4727 183.895 44.4727 183.496 44.4727C183.027 44.4727 182.582 44.4609 182.16 44.4375C181.738 44.4141 181.211 44.4023 180.578 44.4023C180.039 44.4023 179.348 44.4023 178.504 44.4023C177.684 44.4023 176.688 44.4141 175.516 44.4375C176.031 44.0391 176.453 43.6406 176.781 43.2422C177.109 42.8438 177.367 42.4805 177.555 42.1523C177.766 41.7773 177.918 41.4141 178.012 41.0625C178.129 40.4297 178.141 39.7734 178.047 39.0938C177.977 38.5078 177.789 37.8633 177.484 37.1602C177.18 36.4336 176.688 35.707 176.008 34.9805C175.328 35.0977 174.754 35.1914 174.285 35.2617C173.84 35.3086 173.453 35.3555 173.125 35.4023C172.75 35.4492 172.445 35.4844 172.211 35.5078C172 35.5312 171.766 35.5547 171.508 35.5781C171.297 35.6016 171.062 35.6367 170.805 35.6836C170.57 35.707 170.348 35.7422 170.137 35.7891C170.09 36.7969 170.09 37.6758 170.137 38.4258C170.184 39.1523 170.242 39.7617 170.312 40.2539C170.406 40.8398 170.512 41.3438 170.629 41.7656C170.746 42.1875 170.91 42.5977 171.121 42.9961C171.285 43.3242 171.496 43.6758 171.754 44.0508C172.012 44.4023 172.305 44.6953 172.633 44.9297C172.023 44.9297 171.438 44.9297 170.875 44.9297C170.336 44.9297 169.844 44.918 169.398 44.8945C168.883 44.8945 168.391 44.8828 167.922 44.8594C167.453 44.8359 166.926 44.8242 166.34 44.8242C165.848 44.8242 165.262 44.8242 164.582 44.8242C163.926 44.8242 163.211 44.8359 162.438 44.8594C163.047 44.2266 163.527 43.6875 163.879 43.2422C164.23 42.7969 164.5 42.4219 164.688 42.1172C164.898 41.7891 165.027 41.5078 165.074 41.2734C165.121 40.8984 165.156 40.2305 165.18 39.2695C165.227 38.2852 165.262 37.1602 165.285 35.8945C165.309 34.6289 165.32 33.3047 165.32 31.9219C165.32 30.5391 165.309 29.25 165.285 28.0547C165.262 26.8359 165.238 25.793 165.215 24.9258C165.191 24.0586 165.168 23.5078 165.145 23.2734C165.074 22.8516 164.922 22.4297 164.688 22.0078C164.5 21.6328 164.23 21.2109 163.879 20.7422C163.527 20.2734 163.047 19.8047 162.438 19.3359ZM175.727 31.7109C175.961 31.5703 176.16 31.4297 176.324 31.2891C176.488 31.1484 176.629 30.9258 176.746 30.6211C176.863 30.293 176.957 29.8359 177.027 29.25C177.121 28.6641 177.227 27.8672 177.344 26.8594C177.438 25.8516 177.367 25.0195 177.133 24.3633C176.922 23.707 176.629 23.1914 176.254 22.8164C175.902 22.418 175.504 22.1484 175.059 22.0078C174.637 21.8438 174.262 21.7617 173.934 21.7617C173.277 21.7617 172.633 21.9609 172 22.3594C171.367 22.7578 170.887 23.2969 170.559 23.9766C170.441 24.2812 170.336 24.7852 170.242 25.4883C170.172 26.0977 170.125 26.9414 170.102 28.0195C170.078 29.0977 170.113 30.5156 170.207 32.2734C171.098 32.4141 171.883 32.4727 172.562 32.4492C173.242 32.4023 173.816 32.3203 174.285 32.2031C174.848 32.0859 175.328 31.9219 175.727 31.7109ZM185.324 19.3359C186.895 19.5234 188.254 19.6641 189.402 19.7578C190.551 19.8281 191.5 19.8867 192.25 19.9336C193.117 19.9805 193.844 19.9922 194.43 19.9688C195.039 19.9453 195.871 19.8867 196.926 19.793C197.816 19.7227 198.988 19.6289 200.441 19.5117C201.895 19.3711 203.711 19.1836 205.891 18.9492C205.914 19.4883 205.926 20.0156 205.926 20.5312C205.949 21.0234 205.973 21.457 205.996 21.832C206.02 22.2773 206.031 22.6875 206.031 23.0625C206.031 23.4609 206.008 23.9648 205.961 24.5742C205.914 25.0898 205.832 25.7461 205.715 26.543C205.621 27.3164 205.469 28.2422 205.258 29.3203C204.93 28.0547 204.613 27.0352 204.309 26.2617C204.004 25.4648 203.723 24.832 203.465 24.3633C203.184 23.8242 202.902 23.4141 202.621 23.1328C202.316 22.9219 201.953 22.7461 201.531 22.6055C201.156 22.4883 200.676 22.3945 200.09 22.3242C199.527 22.2539 198.859 22.2656 198.086 22.3594C197.969 25.4531 197.887 27.9609 197.84 29.8828C197.793 31.8047 197.758 33.3047 197.734 34.3828C197.711 35.6719 197.699 36.5977 197.699 37.1602C197.723 37.957 197.852 38.7422 198.086 39.5156C198.273 40.1719 198.578 40.8516 199 41.5547C199.422 42.2578 200.031 42.8789 200.828 43.418H196.539C196.141 43.418 195.648 43.4414 195.062 43.4883C194.57 43.5352 193.938 43.582 193.164 43.6289C192.414 43.6758 191.535 43.7578 190.527 43.875C190.879 43.2656 191.16 42.7148 191.371 42.2227C191.582 41.7305 191.746 41.3086 191.863 40.957C192.004 40.5352 192.109 40.1602 192.18 39.832C192.203 39.3633 192.262 38.4141 192.355 36.9844C192.379 36.3984 192.402 35.6719 192.426 34.8047C192.473 33.9375 192.52 32.9062 192.566 31.7109C192.637 30.5156 192.695 29.1445 192.742 27.5977C192.812 26.0273 192.883 24.2578 192.953 22.2891C192.531 22.1719 192.133 22.1836 191.758 22.3242C191.383 22.4414 191.055 22.5938 190.773 22.7812C190.445 23.0156 190.129 23.2969 189.824 23.625C189.52 24.0234 189.18 24.5391 188.805 25.1719C188.477 25.7109 188.102 26.4258 187.68 27.3164C187.258 28.1836 186.777 29.2617 186.238 30.5508C186.121 29.1914 186.039 28.0781 185.992 27.2109C185.945 26.3203 185.91 25.6289 185.887 25.1367C185.863 24.5508 185.852 24.1172 185.852 23.8359C185.852 23.5781 185.828 23.2383 185.781 22.8164C185.734 22.4648 185.676 22.0078 185.605 21.4453C185.535 20.8594 185.441 20.1562 185.324 19.3359Z" fill="#8F478F"/>
</svg>
